<svg width="18" height="18" viewBox="0 0 18 18" fill="none" xmlns="http://www.w3.org/2000/svg">
<path d="M5.18799 11.1404L7.43274 8.22368L9.99324 10.2337L12.19 7.39868" stroke="#727272" stroke-width="1.5" stroke-linecap="round" stroke-linejoin="round"/>
<path fill-rule="evenodd" clip-rule="evenodd" d="M14.7506 1.7627C15.5471 1.7627 16.1921 2.4077 16.1921 3.2042C16.1921 3.99995 15.5471 4.6457 14.7506 4.6457C13.9541 4.6457 13.3091 3.99995 13.3091 3.2042C13.3091 2.4077 13.9541 1.7627 14.7506 1.7627Z" stroke="#727272" stroke-width="1.5" stroke-linecap="round" stroke-linejoin="round"/>
<path d="M15.5669 6.95179C15.6667 7.62304 15.7124 8.37904 15.7124 9.22729C15.7124 14.4308 13.9784 16.1648 8.7749 16.1648C3.57215 16.1648 1.8374 14.4308 1.8374 9.22729C1.8374 4.02454 3.57215 2.28979 8.7749 2.28979C9.6074 2.28979 10.3507 2.33404 11.0122 2.43004" stroke="#727272" stroke-width="1.5" stroke-linecap="round" stroke-linejoin="round"/>
</svg>
