<svg width="15" height="17" viewBox="0 0 15 17" fill="none" xmlns="http://www.w3.org/2000/svg">
<path fill-rule="evenodd" clip-rule="evenodd" d="M7.20882 6.08325C6.40466 6.08325 5.75049 6.73742 5.75049 7.54242C5.75049 8.34659 6.40466 8.99992 7.20882 8.99992C8.01299 8.99992 8.66716 8.34659 8.66716 7.54242C8.66716 6.73742 8.01299 6.08325 7.20882 6.08325M7.20882 10.2499C5.71549 10.2499 4.50049 9.03575 4.50049 7.54242C4.50049 6.04825 5.71549 4.83325 7.20882 4.83325C8.70216 4.83325 9.91716 6.04825 9.91716 7.54242C9.91716 9.03575 8.70216 10.2499 7.20882 10.2499" fill="#727272"/>
<mask id="mask0_59598_257" style="mask-type:luminance" maskUnits="userSpaceOnUse" x="0" y="0" width="15" height="17">
<path fill-rule="evenodd" clip-rule="evenodd" d="M0.333496 0.666748H14.0831V16.9167H0.333496V0.666748Z" fill="white"/>
</mask>
<g mask="url(#mask0_59598_257)">
<path fill-rule="evenodd" clip-rule="evenodd" d="M7.20801 1.91675C4.10634 1.91675 1.58301 4.46425 1.58301 7.59425C1.58301 11.5767 6.26967 15.4567 7.20801 15.6634C8.14634 15.4559 12.833 11.5759 12.833 7.59425C12.833 4.46425 10.3097 1.91675 7.20801 1.91675V1.91675ZM7.20801 16.9167C5.71301 16.9167 0.333008 12.2901 0.333008 7.59425C0.333008 3.77425 3.41717 0.666748 7.20801 0.666748C10.9988 0.666748 14.083 3.77425 14.083 7.59425C14.083 12.2901 8.70301 16.9167 7.20801 16.9167V16.9167Z" fill="#727272"/>
</g>
</svg>
